<svg preserveAspectRatio="none" width="100%" height="100%" overflow="visible" style="display: block;" viewBox="0 0 7.80452 13.8031" fill="none" xmlns="http://www.w3.org/2000/svg">
<path id="Vector" d="M7.53906 7.53906L1.53906 13.5391C1.36999 13.7081 1.14067 13.8031 0.901561 13.8031C0.662452 13.8031 0.433136 13.7081 0.264061 13.5391C0.0949855 13.37 1.7815e-09 13.1407 0 12.9016C-1.7815e-09 12.6625 0.0949855 12.4331 0.264061 12.2641L5.62731 6.90231L0.265561 1.53906C0.181844 1.45534 0.115435 1.35596 0.0701271 1.24657C0.0248194 1.13719 0.00149975 1.01996 0.00149975 0.901561C0.00149975 0.783167 0.0248194 0.665931 0.0701271 0.556549C0.115435 0.447166 0.181844 0.347779 0.265561 0.264061C0.349279 0.180344 0.448666 0.113935 0.558049 0.0686274C0.667431 0.0233197 0.784667 -8.82109e-10 0.903061 0C1.02146 8.82109e-10 1.13869 0.0233197 1.24807 0.0686274C1.35746 0.113935 1.45684 0.180344 1.54056 0.264061L7.54056 6.26406C7.62437 6.34777 7.69082 6.44721 7.73612 6.55666C7.78142 6.66611 7.80466 6.78342 7.80452 6.90187C7.80438 7.02033 7.78086 7.13759 7.73531 7.24693C7.68975 7.35627 7.62306 7.45555 7.53906 7.53906Z" fill="var(--fill-0, #C6F241)"/>
</svg>
