<svg preserveAspectRatio="none" width="100%" height="100%" overflow="visible" style="display: block;" viewBox="0 0 18.3333 18.3333" fill="none" xmlns="http://www.w3.org/2000/svg">
<g id="Group">
<path id="Vector" fill-rule="evenodd" clip-rule="evenodd" d="M7.5 9.16667C10.0313 9.16667 12.0833 7.11464 12.0833 4.58333C12.0833 2.05203 10.0313 0 7.5 0C4.96869 0 2.91667 2.05203 2.91667 4.58333C2.91667 7.11464 4.96869 9.16667 7.5 9.16667ZM18.3333 13.3333H15.8333V10.8333H13.3333V13.3333H10.8333V15.8333H13.3333V18.3333H15.8333V15.8333H18.3333V13.3333ZM0 18.3333H10.0834C9.25008 17.3333 8.75 16 8.75 14.5833C8.75 13.1667 9.25008 11.8333 10.0834 10.8333H10H5C2.25 10.8333 0 13.0833 0 15.8333V18.3333Z" fill="var(--fill-0, white)"/>
</g>
</svg>
