<svg preserveAspectRatio="none" width="100%" height="100%" overflow="visible" style="display: block;" viewBox="0 0 26.667 28.123" fill="none" xmlns="http://www.w3.org/2000/svg">
<path id="Union" d="M4.38574 7.31543C3.44372 8.99431 2.91312 10.8973 2.91309 12.9131C2.91309 19.7045 8.94556 25.21 16.3867 25.21C20.1258 25.21 23.5082 23.8191 25.9492 21.5742C23.4568 25.5099 19.0647 28.123 14.0615 28.123C6.29555 28.123 0 21.8275 0 14.0615C6.5971e-05 6.29559 6.29559 6.59753e-05 14.0615 0C14.243 0 14.4237 0.00487266 14.6035 0.0117188C14.7767 0.00400343 14.9509 0 15.126 0C21.4997 2.11316e-05 26.667 5.16731 26.667 11.541C26.6668 17.9145 21.4995 23.081 15.126 23.0811C8.75239 23.0811 3.58517 17.9146 3.58496 11.541C3.58496 10.0493 3.87047 8.62417 4.38574 7.31543Z" fill="url(#paint0_linear_0_400)"/>
<defs>
<linearGradient id="paint0_linear_0_400" x1="13.3335" y1="0" x2="13.3335" y2="28.123" gradientUnits="userSpaceOnUse">
<stop stop-color="#000F53"/>
<stop offset="1" stop-color="#001B96"/>
</linearGradient>
</defs>
</svg>
