<svg preserveAspectRatio="none" width="100%" height="100%" overflow="visible" style="display: block;" viewBox="0 0 17.2551 17.2539" fill="none" xmlns="http://www.w3.org/2000/svg">
<path id="Vector" d="M16.9246 13.9238L13.9246 16.9238C13.7133 17.1352 13.4266 17.2539 13.1278 17.2539C12.8289 17.2539 12.5422 17.1352 12.3309 16.9238C12.1195 16.7125 12.0008 16.4258 12.0008 16.127C12.0008 15.8281 12.1195 15.5414 12.3309 15.3301L13.4099 14.2529H1.1287C0.830331 14.2529 0.544183 14.1344 0.333204 13.9234C0.122226 13.7124 0.00369966 13.4263 0.00369966 13.1279C0.00369966 12.8295 0.122226 12.5434 0.333204 12.3324C0.544183 12.1214 0.830331 12.0029 1.1287 12.0029H13.4099L12.3299 10.9238C12.1186 10.7125 11.9999 10.4258 11.9999 10.127C11.9999 9.82807 12.1186 9.54142 12.3299 9.33008C12.5413 9.11873 12.8279 9 13.1268 9C13.4257 9 13.7124 9.11873 13.9237 9.33008L16.9237 12.3301C17.0286 12.4345 17.1119 12.5587 17.1688 12.6954C17.2257 12.8321 17.255 12.9787 17.2551 13.1268C17.2551 13.2748 17.226 13.4215 17.1693 13.5582C17.1126 13.695 17.0295 13.8192 16.9246 13.9238ZM3.33089 7.92383C3.54223 8.13517 3.82888 8.2539 4.12776 8.2539C4.42665 8.2539 4.71329 8.13517 4.92464 7.92383C5.13598 7.71248 5.25471 7.42584 5.25471 7.12695C5.25471 6.82807 5.13598 6.54142 4.92464 6.33008L3.84745 5.25289H16.1287C16.4271 5.25289 16.7132 5.13436 16.9242 4.92338C17.1352 4.71241 17.2537 4.42626 17.2537 4.12789C17.2537 3.82952 17.1352 3.54337 16.9242 3.33239C16.7132 3.12142 16.4271 3.00289 16.1287 3.00289H3.84745L4.92464 1.92383C5.13598 1.71248 5.25471 1.42584 5.25471 1.12695C5.25471 0.828066 5.13598 0.541421 4.92464 0.330077C4.71329 0.118732 4.42665 2.22687e-09 4.12776 0C3.82888 -2.22687e-09 3.54223 0.118732 3.33089 0.330077L0.330887 3.33008C0.226007 3.43459 0.142791 3.55879 0.0860095 3.69553C0.0292284 3.83228 0 3.97889 0 4.12695C0 4.27502 0.0292284 4.42163 0.0860095 4.55837C0.142791 4.69512 0.226007 4.81931 0.330887 4.92383L3.33089 7.92383Z" fill="var(--fill-0, #727272)"/>
</svg>
