<svg preserveAspectRatio="none" width="100%" height="100%" overflow="visible" style="display: block;" viewBox="0 0 19.5 15" fill="none" xmlns="http://www.w3.org/2000/svg">
<path id="Vector" d="M17.25 0H2.25C1.65326 0 1.08097 0.237053 0.65901 0.65901C0.237053 1.08097 0 1.65326 0 2.25V12.75C0 13.3467 0.237053 13.919 0.65901 14.341C1.08097 14.7629 1.65326 15 2.25 15H17.25C17.8467 15 18.419 14.7629 18.841 14.341C19.2629 13.919 19.5 13.3467 19.5 12.75V2.25C19.5 1.65326 19.2629 1.08097 18.841 0.65901C18.419 0.237053 17.8467 0 17.25 0ZM12 6.75C12 7.34674 11.7629 7.91903 11.341 8.34099C10.919 8.76295 10.3467 9 9.75 9C9.15326 9 8.58097 8.76295 8.15901 8.34099C7.73705 7.91903 7.5 7.34674 7.5 6.75C7.5 6.55109 7.42098 6.36032 7.28033 6.21967C7.13968 6.07902 6.94891 6 6.75 6H1.5V4.5H18V6H12.75C12.5511 6 12.3603 6.07902 12.2197 6.21967C12.079 6.36032 12 6.55109 12 6.75ZM2.25 1.5H17.25C17.4489 1.5 17.6397 1.57902 17.7803 1.71967C17.921 1.86032 18 2.05109 18 2.25V3H1.5V2.25C1.5 2.05109 1.57902 1.86032 1.71967 1.71967C1.86032 1.57902 2.05109 1.5 2.25 1.5Z" fill="var(--fill-0, #001B96)"/>
</svg>
