<svg preserveAspectRatio="none" width="100%" height="100%" overflow="visible" style="display: block;" viewBox="0 0 15 12.0003" fill="none" xmlns="http://www.w3.org/2000/svg">
<path id="Vector" d="M15 11.5003C15 11.6329 14.9473 11.7601 14.8536 11.8539C14.7598 11.9476 14.6326 12.0003 14.5 12.0003H0.5C0.367392 12.0003 0.240215 11.9476 0.146447 11.8539C0.0526784 11.7601 0 11.6329 0 11.5003C0 11.3677 0.0526784 11.2405 0.146447 11.1468C0.240215 11.053 0.367392 11.0003 0.5 11.0003H14.5C14.6326 11.0003 14.7598 11.053 14.8536 11.1468C14.9473 11.2405 15 11.3677 15 11.5003ZM0.51875 4.63656C0.489011 4.53171 0.494349 4.42001 0.53395 4.31846C0.573552 4.21692 0.645248 4.1311 0.738125 4.07406L7.23812 0.074064C7.31689 0.0256378 7.40754 0 7.5 0C7.59246 0 7.68311 0.0256378 7.76188 0.074064L14.2619 4.07406C14.3548 4.13103 14.4265 4.21679 14.4662 4.31829C14.5059 4.41979 14.5113 4.53148 14.4817 4.63634C14.452 4.74121 14.3889 4.83352 14.302 4.89923C14.215 4.96493 14.109 5.00043 14 5.00031H12.5V9.00031H13.5C13.6326 9.00031 13.7598 9.05299 13.8536 9.14676C13.9473 9.24053 14 9.36771 14 9.50031C14 9.63292 13.9473 9.7601 13.8536 9.85387C13.7598 9.94764 13.6326 10.0003 13.5 10.0003H1.5C1.36739 10.0003 1.24021 9.94764 1.14645 9.85387C1.05268 9.7601 1 9.63292 1 9.50031C1 9.36771 1.05268 9.24053 1.14645 9.14676C1.24021 9.05299 1.36739 9.00031 1.5 9.00031H2.5V5.00031H1C0.891118 5.00035 0.785199 4.96485 0.698338 4.89919C0.611477 4.83354 0.54842 4.74133 0.51875 4.63656ZM8.5 8.50031C8.5 8.63292 8.55268 8.7601 8.64645 8.85387C8.74021 8.94764 8.86739 9.00031 9 9.00031C9.13261 9.00031 9.25979 8.94764 9.35355 8.85387C9.44732 8.7601 9.5 8.63292 9.5 8.50031V5.50031C9.5 5.36771 9.44732 5.24053 9.35355 5.14676C9.25979 5.05299 9.13261 5.00031 9 5.00031C8.86739 5.00031 8.74021 5.05299 8.64645 5.14676C8.55268 5.24053 8.5 5.36771 8.5 5.50031V8.50031ZM5.5 8.50031C5.5 8.63292 5.55268 8.7601 5.64645 8.85387C5.74021 8.94764 5.86739 9.00031 6 9.00031C6.13261 9.00031 6.25979 8.94764 6.35355 8.85387C6.44732 8.7601 6.5 8.63292 6.5 8.50031V5.50031C6.5 5.36771 6.44732 5.24053 6.35355 5.14676C6.25979 5.05299 6.13261 5.00031 6 5.00031C5.86739 5.00031 5.74021 5.05299 5.64645 5.14676C5.55268 5.24053 5.5 5.36771 5.5 5.50031V8.50031Z" fill="var(--fill-0, #DDDDDD)"/>
</svg>
