<svg preserveAspectRatio="none" width="100%" height="100%" overflow="visible" style="display: block;" viewBox="0 0 21.75 15.75" fill="none" xmlns="http://www.w3.org/2000/svg">
<path id="Vector" d="M19.875 0H1.875C1.37772 0 0.900806 0.197544 0.549175 0.549175C0.197544 0.900806 0 1.37772 0 1.875V13.875C0 14.3723 0.197544 14.8492 0.549175 15.2008C0.900806 15.5525 1.37772 15.75 1.875 15.75H19.875C20.3723 15.75 20.8492 15.5525 21.2008 15.2008C21.5525 14.8492 21.75 14.3723 21.75 13.875V1.875C21.75 1.37772 21.5525 0.900806 21.2008 0.549175C20.8492 0.197544 20.3723 0 19.875 0ZM19.5 2.25V4.125H2.25V2.25H19.5ZM2.25 13.5V6.375H19.5V13.5H2.25ZM18.375 11.25C18.375 11.5484 18.2565 11.8345 18.0455 12.0455C17.8345 12.2565 17.5484 12.375 17.25 12.375H14.25C13.9516 12.375 13.6655 12.2565 13.4545 12.0455C13.2435 11.8345 13.125 11.5484 13.125 11.25C13.125 10.9516 13.2435 10.6655 13.4545 10.4545C13.6655 10.2435 13.9516 10.125 14.25 10.125H17.25C17.5484 10.125 17.8345 10.2435 18.0455 10.4545C18.2565 10.6655 18.375 10.9516 18.375 11.25ZM12 11.25C12 11.5484 11.8815 11.8345 11.6705 12.0455C11.4595 12.2565 11.1734 12.375 10.875 12.375H9.75C9.45163 12.375 9.16548 12.2565 8.9545 12.0455C8.74353 11.8345 8.625 11.5484 8.625 11.25C8.625 10.9516 8.74353 10.6655 8.9545 10.4545C9.16548 10.2435 9.45163 10.125 9.75 10.125H10.875C11.1734 10.125 11.4595 10.2435 11.6705 10.4545C11.8815 10.6655 12 10.9516 12 11.25Z" fill="var(--fill-0, #727272)"/>
</svg>
