<svg preserveAspectRatio="none" width="100%" height="100%" overflow="visible" style="display: block;" viewBox="0 0 18.7509 15.7539" fill="none" xmlns="http://www.w3.org/2000/svg">
<path id="Vector" d="M7.87793 0.046875C8.01966 0.0468971 8.16006 0.0746837 8.29102 0.128906C8.42206 0.183185 8.54131 0.262987 8.6416 0.363281C8.74186 0.463558 8.82171 0.582863 8.87598 0.713867C8.93016 0.844813 8.95801 0.985236 8.95801 1.12695C8.95801 1.26867 8.93017 1.40909 8.87598 1.54004C8.82171 1.67104 8.74186 1.79035 8.6416 1.89062L3.81152 6.71777L3.73145 6.79785H17.626C17.9119 6.79788 18.1865 6.91111 18.3887 7.11328C18.5908 7.31546 18.7041 7.59007 18.7041 7.87598C18.7041 8.16188 18.5908 8.43649 18.3887 8.63867C18.1865 8.84084 17.9119 8.95408 17.626 8.9541H3.73145L3.81152 9.03418L8.6416 13.8633C8.8441 14.0658 8.95801 14.3405 8.95801 14.627C8.95801 14.9134 8.8441 15.1881 8.6416 15.3906C8.43909 15.5931 8.16432 15.707 7.87793 15.707C7.59152 15.707 7.3168 15.5931 7.11426 15.3906L0.364258 8.64062C0.263748 8.54046 0.183321 8.42109 0.128906 8.29004C0.0746124 8.15912 0.0468753 8.01869 0.046875 7.87695C0.046875 7.73522 0.0746131 7.59479 0.128906 7.46387C0.183321 7.33282 0.263748 7.21344 0.364258 7.11328L7.11426 0.363281C7.21453 0.263026 7.33384 0.18317 7.46484 0.128906C7.59577 0.0747401 7.73624 0.046875 7.87793 0.046875Z" fill="var(--fill-0, white)" stroke="var(--stroke-0, #1E1E1E)" stroke-width="0.09375"/>
</svg>
